<svg width="95" height="12" viewBox="0 0 95 12" fill="none" xmlns="http://www.w3.org/2000/svg">
<path fill-rule="evenodd" clip-rule="evenodd" d="M68.5529 11.9583C69.7019 11.9583 70.7381 11.7086 71.6615 11.2093C72.585 10.71 73.3097 10.0201 73.8359 9.13964C74.362 8.25915 74.6251 7.26591 74.6251 6.15993C74.6251 5.05394 74.362 4.06071 73.8359 3.18022C73.3097 2.29973 72.585 1.60983 71.6615 1.11053C70.7381 0.611224 69.7019 0.361572 68.5529 0.361572C67.404 0.361572 66.3678 0.611224 65.4444 1.11053C64.5209 1.60983 63.7962 2.30241 63.27 3.18827C62.7439 4.07413 62.4808 5.06468 62.4808 6.15993C62.4808 7.25517 62.7439 8.24572 63.27 9.13158C63.7962 10.0174 64.5209 10.71 65.4444 11.2093C66.3678 11.7086 67.404 11.9583 68.5529 11.9583ZM7.02602 11.9587C8.17496 11.9587 9.21114 11.7091 10.1346 11.2098C11.058 10.7105 11.7828 10.0206 12.309 9.14009C12.8351 8.2596 13.0982 7.26637 13.0982 6.16038C13.0982 5.0544 12.8351 4.06117 12.309 3.18067C11.7828 2.30018 11.058 1.61029 10.1346 1.11098C9.21114 0.611681 8.17496 0.36203 7.02602 0.36203C5.87709 0.36203 4.8409 0.611681 3.91746 1.11098C2.99402 1.61029 2.26923 2.30287 1.74308 3.18873C1.21693 4.07459 0.953857 5.06514 0.953857 6.16038C0.953857 7.25563 1.21693 8.24618 1.74308 9.13204C2.26923 10.0179 2.99402 10.7105 3.91746 11.2098C4.8409 11.7091 5.87709 11.9587 7.02602 11.9587ZM7.02606 10.122C6.27442 10.122 5.59794 9.95292 4.99663 9.61468C4.39532 9.27644 3.92286 8.80398 3.57926 8.19731C3.23565 7.59063 3.06385 6.91147 3.06385 6.15983C3.06385 5.40819 3.23565 4.72903 3.57926 4.12235C3.92286 3.51567 4.39532 3.04321 4.99663 2.70497C5.59794 2.36674 6.27442 2.19762 7.02606 2.19762C7.7777 2.19762 8.45417 2.36674 9.05548 2.70497C9.65679 3.04321 10.1293 3.51567 10.4729 4.12235C10.8165 4.72903 10.9883 5.40819 10.9883 6.15983C10.9883 6.91147 10.8165 7.59063 10.4729 8.19731C10.1293 8.80398 9.65679 9.27644 9.05548 9.61468C8.45417 9.95292 7.7777 10.122 7.02606 10.122ZM21.7634 4.42046V11.7973H19.7662V0.522674H21.4896L25.9672 7.99611L30.3643 0.522674H32.0877L32.1038 11.7973H30.1227L30.1066 4.32382L26.4021 10.5087H25.4679L21.7634 4.42046ZM40.0123 11.7973V7.81894L44.4254 0.522674H42.3638L39.0298 6.01501L35.7279 0.522674H33.4891L37.9184 7.85115V11.7973H40.0123ZM52.3175 4.16275V11.7973H50.2397V0.522674H51.9631L58.1802 8.15718V0.522674H60.258V11.7973H58.5346L52.3175 4.16275ZM66.5236 9.61468C67.1249 9.95292 67.8014 10.122 68.553 10.122C69.3047 10.122 69.9812 9.95292 70.5825 9.61468C71.1838 9.27644 71.6562 8.80398 71.9998 8.19731C72.3435 7.59063 72.5153 6.91147 72.5153 6.15983C72.5153 5.40819 72.3435 4.72903 71.9998 4.12235C71.6562 3.51567 71.1838 3.04321 70.5825 2.70497C69.9812 2.36674 69.3047 2.19762 68.553 2.19762C67.8014 2.19762 67.1249 2.36674 66.5236 2.70497C65.9223 3.04321 65.4499 3.51567 65.1062 4.12235C64.7626 4.72903 64.5908 5.40819 64.5908 6.15983C64.5908 6.91147 64.7626 7.59063 65.1062 8.19731C65.4499 8.80398 65.9223 9.27644 66.5236 9.61468ZM81.2288 11.7973V2.29439H84.9655V0.522674H75.3982V2.29439H79.1349V11.7973H81.2288ZM95.0001 10.0416V11.7973H86.5441V0.522674H94.7746V2.27829H88.638V5.20968H94.082V6.93308H88.638V10.0416H95.0001Z" fill="white"/>
</svg>
