<svg xmlns="http://www.w3.org/2000/svg" width="40" height="40" viewBox="0 0 44 40">
    <g fill="none">
       
        <path fill="#CFB992" d="M22.476 0C33.535 0 42.5 8.954 42.5 20c0 10.93-8.78 19.813-19.68 19.997l-.344.003h-2.452C8.965 40 0 31.046 0 20 0 9.07 8.78.187 19.68.003L20.023 0h2.452zm9.671 10.208L21.114 19.3 10.08 10.208V33.13c1.084.82 2.272 1.508 3.541 2.043V17.502l11.716 8.98v-6.21l3.541-2.857v16.24l-11.715-8.98v11.54c.792.139 1.604.221 2.431.242l.43.006h2.452c3.613 0 6.955-1.162 9.672-3.131V10.208zm3.543-.05v19.684c2.053-2.745 3.268-6.152 3.268-9.842 0-3.69-1.215-7.097-3.268-9.842zm-29.152.374C4.65 13.21 3.542 16.476 3.542 20s1.108 6.79 2.996 9.468V10.532zm15.938-6.995h-2.452c-3.377 0-6.517 1.015-9.13 2.755l10.22 8.422 10.261-8.455.18-.001c-2.604-1.72-5.724-2.72-9.079-2.72z"/>
    </g>
</svg>
