<svg width="28" height="26" viewBox="0 0 28 26" fill="none" xmlns="http://www.w3.org/2000/svg">
<path fill-rule="evenodd" clip-rule="evenodd" d="M14.2888 0H12.73C5.69941 0 0 5.84631 0 13.0581C0 20.2699 5.69941 26.1162 12.73 26.1162H14.2888C21.3193 26.1162 27.0188 20.2699 27.0188 13.0581C27.0188 5.84631 21.3193 0 14.2888 0ZM12.7299 2.30954H14.2887C16.4217 2.30954 18.4059 2.96331 20.0611 4.08614H19.9462L13.4228 9.60661L6.92527 4.10809C8.58697 2.97183 10.583 2.30954 12.7299 2.30954ZM4.15673 6.87642C2.95637 8.62488 2.25149 10.757 2.25149 13.058C2.25149 15.3591 2.95637 17.4912 4.15673 19.2397V6.87642ZM6.40829 21.6309C7.09726 22.1663 7.85277 22.6163 8.65986 22.9656V11.4266L16.1073 17.2894V13.2355L18.3589 11.3701V21.9733L10.9114 16.1105V23.6453C11.502 23.7513 12.1097 23.8065 12.7299 23.8065H14.2887C16.5858 23.8065 18.7103 23.0483 20.4373 21.7625V6.66454L13.4228 12.6008L6.40829 6.66472V21.6309ZM22.6888 19.4844C23.9942 17.6919 24.7671 15.4675 24.7671 13.058C24.7671 10.6485 23.9942 8.42421 22.6888 6.63171V19.4844Z" fill="#CFB992"/>
</svg>
