<?xml version="1.0" standalone="no"?>
<!DOCTYPE svg PUBLIC "-//W3C//DTD SVG 20010904//EN"
 "http://www.w3.org/TR/2001/REC-SVG-20010904/DTD/svg10.dtd">
<svg version="1.0" xmlns="http://www.w3.org/2000/svg"
 width="889.000000pt" height="288.000000pt" viewBox="0 0 889.000000 288.000000"
 preserveAspectRatio="xMidYMid meet">
<metadata>
Created by potrace 1.16, written by Peter Selinger 2001-2019
</metadata>
<g transform="translate(0.000000,288.000000) scale(0.100000,-0.100000)"
fill="#1F2A56" stroke="none">
<path d="M495 1961 c-266 -76 -426 -325 -386 -603 30 -214 186 -388 397 -442
80 -21 251 -21 328 -1 136 36 271 135 333 246 54 96 68 152 68 279 0 127 -14
183 -68 279 -62 111 -197 210 -333 246 -80 21 -260 19 -339 -4z m337 -194 c66
-32 141 -109 171 -175 32 -68 32 -236 0 -304 -30 -66 -105 -143 -172 -175 -50
-25 -67 -28 -161 -28 -87 0 -113 4 -152 22 -71 32 -141 103 -174 176 -26 55
-29 73 -29 157 0 83 4 102 28 155 30 64 81 123 135 157 59 36 112 48 208 45
74 -2 100 -8 146 -30z"/>
<path d="M6239 1969 c-255 -60 -419 -267 -419 -529 0 -237 127 -422 348 -507
90 -35 282 -44 382 -18 181 47 326 182 381 354 30 92 30 250 0 342 -54 171
-201 308 -377 353 -67 17 -252 20 -315 5z m314 -204 c70 -35 130 -97 165 -173
23 -49 27 -70 27 -152 0 -88 -3 -101 -33 -162 -36 -74 -95 -132 -170 -169 -40
-20 -62 -24 -152 -24 -93 0 -112 3 -161 26 -210 99 -269 372 -122 565 30 40
86 79 149 105 76 30 219 23 297 -16z"/>
<path d="M1850 1440 l0 -530 100 0 100 0 0 332 0 332 163 -269 163 -270 50 -3
49 -3 165 276 165 275 3 -335 2 -335 100 0 100 0 0 198 c0 109 -3 348 -7 530
l-6 332 -81 0 -82 0 -199 -340 c-109 -187 -201 -340 -204 -340 -4 0 -97 153
-209 340 l-203 340 -84 0 -85 0 0 -530z"/>
<path d="M3132 1948 c8 -13 103 -170 211 -349 l197 -326 0 -182 0 -181 100 0
100 0 0 185 0 185 205 340 c113 187 205 342 205 345 0 3 -46 4 -102 3 l-101
-3 -148 -243 c-81 -134 -149 -246 -152 -249 -3 -2 -72 108 -154 246 l-148 251
-114 0 -113 0 14 -22z"/>
<path d="M4680 1440 l0 -530 100 0 100 0 2 349 3 349 283 -349 284 -349 84 0
84 0 0 530 0 530 -100 0 -100 0 0 -351 0 -351 -283 349 -282 348 -88 3 -87 3
0 -531z"/>
<path d="M7020 1885 l0 -85 175 0 175 0 0 -445 0 -445 100 0 100 0 0 445 0
445 175 0 175 0 0 85 0 85 -450 0 -450 0 0 -85z"/>
<path d="M8050 1440 l0 -530 400 0 400 0 0 85 0 85 -295 0 -295 0 0 140 0 140
250 0 250 0 0 85 0 85 -250 0 -250 0 0 135 0 135 285 0 285 0 0 85 0 85 -390
0 -390 0 0 -530z"/>
</g>
</svg>
