<svg width="250" height="280" viewBox="0 0 250 280" fill="none" xmlns="http://www.w3.org/2000/svg">
<path d="M68.3698 48.3262C56.8827 49.1874 46.5523 44.1701 37.9055 37.1638C37.3365 37.674 36.6649 38.0765 35.9513 38.3339C46.5849 47.0906 57.6663 51.242 68.5284 50.4276C68.5471 50.4276 68.5704 50.4229 68.589 50.4229C69.1394 50.3481 69.5405 49.8566 69.4985 49.2997C69.4519 48.7193 68.9482 48.2841 68.3698 48.3262Z" fill="#6D6D2F"/>
<path d="M78.7983 113.096C78.733 113.106 78.6724 113.106 78.6071 113.106C78.0287 113.078 77.581 112.581 77.609 111.996C79.8663 68.1285 53.5994 13.8985 53.3335 13.3556C53.077 12.8314 53.2916 12.1996 53.8139 11.9422C54.3363 11.6848 54.9659 11.9001 55.2224 12.4243C55.4882 12.9718 81.993 67.6979 79.7124 112.104C79.6844 112.619 79.2927 113.031 78.7983 113.096Z" fill="#6D6D2F"/>
<path d="M79.9782 146.157C79.4512 146.228 78.9429 145.886 78.8169 145.352C72.6093 119.078 79.0828 104.059 85.3417 89.5406C86.0646 87.8604 86.7875 86.1849 87.4917 84.4953C93.3216 70.4546 94.6974 54.4154 94.7114 54.2515C94.758 53.6712 95.271 53.2406 95.8447 53.2874C96.423 53.3342 96.8521 53.8444 96.8055 54.4247C96.7915 54.5885 95.3923 70.9507 89.4319 85.305C88.7276 87.0086 88.0001 88.6935 87.2725 90.3783C81.1489 104.583 74.8153 119.274 80.8597 144.866C80.995 145.432 80.6452 146.003 80.0808 146.134C80.0482 146.148 80.0109 146.153 79.9782 146.157Z" fill="#6D6D2F"/>
<path d="M106.856 191.139C106.282 191.214 105.751 190.807 105.676 190.231C105.658 190.1 103.713 176.78 87.8742 157.217C74.6941 140.934 45.8854 99.9306 45.5962 99.5187C45.2604 99.0413 45.377 98.3814 45.8481 98.0491C46.3238 97.7121 46.9767 97.8292 47.3125 98.3065C47.6017 98.7184 76.3684 139.666 89.5019 155.892C105.765 175.975 107.682 189.398 107.756 189.96C107.84 190.531 107.434 191.064 106.856 191.139Z" fill="#6D6D2F"/>
<path d="M104.067 239.444C103.554 239.514 103.055 239.186 102.915 238.672C100.369 229.185 98.8482 204.188 104.09 193.432C111.096 179.05 118.073 145.54 118.143 145.203C118.259 144.632 118.819 144.262 119.388 144.384C119.957 144.501 120.321 145.062 120.204 145.633C119.92 147.019 113.106 179.738 105.984 194.359C101.143 204.291 102.421 228.689 104.953 238.124C105.102 238.686 104.771 239.266 104.212 239.416C104.16 239.43 104.114 239.439 104.067 239.444Z" fill="#6D6D2F"/>
<path d="M121.072 129.847C121.258 127.165 122.293 121.642 127.093 120.945C131.892 120.252 128.235 134.101 126.617 138.397C125.003 142.694 122.429 145.928 121.146 142.525C119.607 138.439 120.624 136.296 121.072 129.847Z" fill="#BAB156"/>
<path d="M120.213 143.504C120.213 143.504 129.009 127.703 134.196 129.5C139.382 131.298 126.738 170.766 115.232 165.459C105.821 161.115 120.213 143.504 120.213 143.504Z" fill="#D3CC75"/>
<path d="M114.164 166.526C114.164 166.526 106.376 161.069 108.684 147.276C110.998 133.483 114.584 119.527 119.323 119.728C124.07 119.929 126.915 163.994 114.164 166.526Z" fill="#EAE58F"/>
<path d="M97.8688 45.6444C98.0554 42.9627 99.0908 37.44 103.89 36.7426C108.689 36.0499 105.033 49.8988 103.414 54.1952C101.8 58.4917 99.226 61.7257 97.9435 58.3232C96.409 54.2327 97.4211 52.0891 97.8688 45.6444Z" fill="#BAB156"/>
<path d="M97.0153 59.3015C97.0153 59.3015 105.811 43.501 110.998 45.2982C116.184 47.0954 103.54 86.5639 92.0343 81.2565C82.6226 76.9086 97.0153 59.3015 97.0153 59.3015Z" fill="#D3CC75"/>
<path d="M94.0164 80.7135C92.5427 82.0708 90.2387 81.9023 88.9841 80.3391C86.8527 77.6807 83.9565 72.2001 85.4862 63.0737C87.7995 49.281 91.386 35.3245 96.1245 35.5211C100.448 35.7036 103.195 72.275 94.0164 80.7135Z" fill="#EAE58F"/>
<path d="M39.6918 94.6886C37.803 92.7791 34.3424 88.3656 36.9821 84.2798C39.6219 80.1986 47.5971 92.0817 49.7565 96.1348C51.9112 100.183 52.6481 104.255 49.2481 102.982C45.1719 101.452 44.2298 99.2753 39.6918 94.6886Z" fill="#BAB156"/>
<path d="M47.7883 102.425C47.7883 102.425 37.5698 85.6511 42.3362 82.9179C47.0981 80.1846 72.5301 115.455 60.9684 120.645C51.5101 124.895 47.7883 102.425 47.7883 102.425Z" fill="#D3CC75"/>
<path d="M61.0663 122.157C57.0787 125.166 51.8412 124.446 43.0265 113.615C34.2071 102.785 31.7166 91.6745 34.9906 88.2251C38.2647 84.7758 71.4528 114.317 61.0663 122.157Z" fill="#EAE58F"/>
<path d="M53.2822 15.5084C52.2002 13.7674 50.372 9.88746 53.0304 7.29928C55.6888 4.71111 59.6111 14.9187 60.5299 18.2979C61.4486 21.677 61.3041 24.8362 58.9955 23.3104C56.2158 21.4804 55.8847 19.6972 53.2822 15.5084Z" fill="#BAB156"/>
<path d="M57.9974 22.6504C57.9974 22.6504 53.2309 8.42714 57.2418 7.20091C61.2481 5.97937 74.2043 36.5601 64.7227 38.4556C56.9667 40.0047 57.9974 22.6504 57.9974 22.6504Z" fill="#D3CC75"/>
<path d="M64.5408 39.5976C61.0662 41.1561 57.2885 39.7287 52.5593 30.1669C47.8302 20.6052 47.8582 11.9093 50.8757 9.90148C53.8979 7.88897 73.598 35.5352 64.5408 39.5976Z" fill="#EAE58F"/>
<path d="M23.1677 29.3339C21.3068 28.4821 17.6457 26.2684 18.4339 22.6365C19.2221 19.0046 28.1161 25.3323 30.7418 27.6397C33.3722 29.947 34.9906 32.6569 32.2249 32.6662C28.8996 32.6803 27.645 31.3792 23.1677 29.3339Z" fill="#BAB156"/>
<path d="M31.0309 32.6663C31.0309 32.6663 19.222 23.4602 21.8897 20.2168C24.5574 16.9734 52.2049 35.2638 45.3443 42.1016C39.7383 47.6992 31.0309 32.6663 31.0309 32.6663Z" fill="#D3CC75"/>
<path d="M45.8248 43.1547C43.7866 46.384 39.855 47.2873 30.6439 41.9472C21.4327 36.6023 16.6616 29.3433 18.0701 25.9969C19.4832 22.6458 51.1322 34.7396 45.8248 43.1547Z" fill="#EAE58F"/>
<path d="M79.9632 257.902C79.9632 257.902 83.3586 175.315 67.2155 147.369C51.0724 119.425 11 120.001 11 120.001L15.9614 133.952L19.7637 136.715C24.5398 140.187 25.8732 147.528 22.7049 152.916L35.2945 188.317H39.987L36.8968 195.581L63.5676 258.573L79.9632 257.902Z" fill="#4F4E21"/>
<path d="M67.2155 147.369C51.0724 119.425 11 120.001 11 120.001C11 120.001 40.3613 135.314 49.6064 144.821C58.8533 154.327 53.3542 150.582 54.3552 163.258C55.3544 175.934 56.8549 182.182 62.8518 189.286C68.8487 196.39 65.8512 202.151 67.6006 218.284C69.3501 234.418 72.3494 236.434 72.3494 240.755C72.3494 242.88 71.6246 250.784 70.887 258.272L79.965 257.9C79.9632 257.902 83.3586 175.315 67.2155 147.369Z" fill="#6D6D2F"/>
<path d="M156.643 240.676C156.643 240.676 139.688 138.407 167.684 91.8004C195.68 45.192 246.962 25.2542 246.962 25.2542L232.442 79.1894L220.208 79.0054L230.131 87.0787L220.21 118.458L207.989 120.239L215.577 137.305L207.753 174.089L188.701 177.534L201.388 188.274C201.39 188.274 189.361 222.683 156.643 240.676Z" fill="#DAE3FA"/>
<path d="M190.852 84.3975C170.866 100.929 181.687 99.7193 167.58 155.234C159.181 188.286 157.491 219.966 157.5 240.194C189.568 222.079 201.391 188.274 201.391 188.274L188.703 177.534L207.755 174.089L215.579 137.305L207.992 120.239L220.213 118.458L230.133 87.0787L220.211 79.0054L232.445 79.1894L246.964 25.2542C246.964 25.2542 225.116 44.8093 215.175 54.7222C205.231 64.6372 210.839 67.8661 190.852 84.3975Z" fill="#9388FF"/>
<path d="M185.664 179.729C178.348 204.786 201.776 222.29 208.637 258.905C210.077 266.589 217.188 266.646 217.23 263.011C217.41 248.034 218.726 203.963 210.248 193.949C207.443 190.635 206.69 186.924 207.209 183.031C199.537 183.452 192.311 182.122 185.664 179.729Z" fill="#CFB992"/>
<path d="M210.248 193.949C207.443 190.636 206.69 186.925 207.209 183.032C204.495 183.18 201.838 183.106 199.242 182.846C199.214 183.038 199.181 183.231 199.159 183.423C197.637 196.656 208.424 220.45 209.82 230.12C210.885 237.491 212.469 252.483 217.262 260.969C217.503 244.391 218.369 203.543 210.248 193.949Z" fill="#AD263D"/>
<path d="M177.161 49.4654C176.172 49.9517 173.793 47.1902 171.724 50.0596C170.465 51.8041 172.61 53.9271 171.661 54.83C170.71 55.7329 167.561 56.936 168.061 59.4925C168.561 62.049 171.262 63.453 169.36 65.1087C167.46 66.7622 174.01 70.0228 181.185 67.7666C188.361 65.5104 189.262 63.656 189.31 61.9517C189.361 60.2474 187.36 59.5961 187.21 58.0906C187.06 56.5871 187.286 54.0497 186.061 51.8231C184.981 49.8587 182.062 47.0591 177.161 49.4654Z" fill="#614CD4"/>
<path d="M209.687 258.125C209.687 258.125 210.128 260.33 209.035 262.053C208.559 262.804 207.169 263.364 205.252 264.166C204.349 264.95 203.466 265.957 204.444 266.27C206.119 266.805 215.946 266.811 216.87 265.198C217.18 264.656 217.572 264.229 218.007 263.897C216.695 261.979 216.33 259.863 216.17 258.125H209.687Z" fill="#CFB992"/>
<path d="M216.87 265.198C215.948 266.811 206.119 266.805 204.444 266.27C203.466 265.957 204.349 264.95 205.252 264.166C202.217 265.711 198.47 267.705 198.339 268.733C198.124 270.448 216.003 270.395 218.975 268.733C220.529 267.864 219.443 265.999 218.005 263.895C217.57 264.229 217.178 264.656 216.87 265.198Z" fill="#614CD4"/>
<path d="M149.372 95.5263C154.102 95.5263 163.925 76.0325 174.215 71.2516C184.667 66.3966 181.36 78.9844 178.614 84.5837C173.07 95.8879 166.011 112.637 149.245 112.662C136.554 112.681 124.885 94.1434 125.895 82.8032C126.49 76.1256 128.082 76.2334 130.883 75.5525C136.016 81.8496 144.131 95.5263 149.372 95.5263Z" fill="#CFB992"/>
<path d="M167.051 88.5014C164.514 96.9003 163.624 102.459 157.025 103.178C150.426 103.897 151.567 100.207 145.477 102.244C139.386 104.28 133.293 97.6256 130.375 91.4089C128.955 88.3851 127.3 85.391 125.878 83.0798C125.077 94.4433 136.655 112.679 149.243 112.66C166.009 112.635 173.068 95.8854 178.612 84.5811C179.841 82.0754 181.179 78.1699 181.349 75.0552C176.031 78.1445 168.637 83.2511 167.051 88.5014Z" fill="#AD263D"/>
<path d="M187.212 58.0884C187.062 56.585 187.288 54.0475 186.063 51.8209C185.586 50.9561 184.751 49.9284 183.547 49.2539C183.992 50.7954 184.624 53.5549 184.133 55.4537C183.42 58.2174 184.527 60.6279 183.18 61.7761C181.832 62.9243 175.742 58.5346 173.458 59.8075C172.059 60.5857 169.64 60.4588 168.076 59.5559C168.609 62.07 171.243 63.4656 169.36 65.1044C167.46 66.7579 174.01 70.0186 181.185 67.7624C188.361 65.5062 189.262 63.6517 189.31 61.9474C189.361 60.2452 187.362 59.5918 187.212 58.0884Z" fill="#311E69"/>
<path d="M181.874 107.632C182.632 105.331 179.772 98.5012 176.503 93.6737C173.521 89.2713 165.505 80.4051 173.624 72.3551C180.059 65.9776 193.661 67.2548 202.417 73.6766C211.526 80.3586 201.255 91.9483 205.912 103.248C207.548 107.222 213.158 113.586 209.143 118.429C196.85 133.251 180.664 111.315 181.874 107.632Z" fill="#311E69"/>
<path d="M182.828 62.4526L184.121 69.826C184.329 71.0397 181.849 74.6534 179.686 73.427C179.053 73.0676 179.517 71.2765 179.839 69.9275L180.251 63.345L182.828 62.4526Z" fill="#CFB992"/>
<path d="M180.006 67.2548C181.508 66.5105 182.71 63.8716 182.71 63.8716L180.192 64.286L180.006 67.2548Z" fill="#3D2547"/>
<path d="M182.056 57.7202L182.961 60.4839C183.678 62.6746 182.606 65.138 180.438 65.9034C178.435 66.6076 176.248 65.7427 175.518 63.1799C174.869 60.9005 176.187 58.6274 176.611 57.4792C177.576 54.8614 180.784 54.6203 182.056 57.7202Z" fill="#CFB992"/>
<path d="M182.813 60.7439C182.933 60.5197 183.019 60.2787 183.091 60.0334C183.226 59.5661 183.536 58.9042 184.127 59.4456C184.987 60.2343 184.131 62.6787 182.927 62.5349C182.03 62.427 182.507 61.3106 182.813 60.7439Z" fill="#CFB992"/>
<path d="M178.612 62.2073C178.612 62.2073 177.555 62.2708 176.117 61.7781C176.117 61.7781 176.067 62.5203 176.48 62.8903C176.978 63.3386 177.998 63.3449 178.612 62.2073Z" fill="white"/>
<path d="M180.035 65.0218C179.192 65.1868 177.629 65.0958 176.925 64.6793C176.3 64.3092 175.63 63.2816 175.486 63.0532C175.497 63.0955 175.503 63.1378 175.516 63.1801C176.246 65.7429 178.432 66.6098 180.436 65.9036C181.773 65.432 182.69 64.3156 183.032 63.0151C182.056 64.2923 180.794 64.8738 180.035 65.0218Z" fill="url(#paint0_linear)"/>
<path d="M161.469 241.071C161.469 241.071 162.842 243.232 162.652 245.264C162.569 246.15 161.585 247.283 160.239 248.871C159.79 249.982 159.461 251.28 160.473 251.113C162.207 250.827 170.963 246.351 171.054 244.492C171.083 243.869 171.239 243.31 171.475 242.816C169.438 241.705 168.152 239.988 167.224 238.512L161.469 241.071Z" fill="#CFB992"/>
<path d="M171.052 244.493C170.961 246.349 162.207 250.826 160.471 251.113C159.459 251.28 159.788 249.982 160.237 248.872C158.236 251.633 155.802 255.116 156.152 256.091C156.736 257.717 172.637 249.517 174.531 246.681C175.52 245.199 173.707 244.034 171.473 242.816C171.237 243.311 171.081 243.871 171.052 244.493Z" fill="#614CD4"/>
<path d="M145.654 146.983C139.821 154.04 135.847 160.62 136.364 165.395C139.511 194.438 153.231 226.278 162.373 242.727C163.837 245.36 170.383 243.801 169.474 241.355C164.217 227.198 175.525 196.455 159.438 178.801C156.757 175.859 159.199 171.081 163.757 165.94C154.906 158.626 148.598 150.895 145.654 146.983Z" fill="#CFB992"/>
<path d="M161.469 241.071L161.471 241.076C161.471 241.073 161.469 241.073 161.469 241.071Z" fill="#CFB992"/>
<path d="M162.375 242.725C162.192 242.395 162.004 242.05 161.818 241.71C162.211 242.501 162.778 243.909 162.651 245.264C162.569 246.15 161.584 247.284 160.239 248.872C159.79 249.982 159.461 251.28 160.473 251.113C162.206 250.828 170.963 246.351 171.053 244.493C171.083 243.869 171.239 243.311 171.475 242.816C170.71 242.399 170.052 241.896 169.478 241.353C170.385 243.799 163.837 245.357 162.375 242.725Z" fill="#CFB992"/>
<path d="M160.471 251.113C159.458 251.28 159.787 249.982 160.237 248.871C158.235 251.633 155.802 255.116 156.152 256.09C156.736 257.717 172.637 249.516 174.531 246.681C175.52 245.198 173.706 244.033 171.473 242.815C171.235 243.31 171.081 243.868 171.051 244.492C170.96 246.351 162.206 250.825 160.471 251.113Z" fill="#614CD4"/>
<path d="M161.818 241.71C161.629 241.327 161.481 241.09 161.47 241.075C161.589 241.291 161.702 241.498 161.818 241.71Z" fill="#CFB992"/>
<path d="M159.44 178.798C156.759 175.857 159.201 171.078 163.759 165.938C161.658 164.204 159.707 162.447 157.904 160.721C151.398 168.236 148.26 172.837 153.6 185.144C160.197 200.347 160.07 229.866 165.463 234.702C166.41 235.552 167.392 236.218 168.367 236.743C166.171 221.3 173.951 194.725 159.44 178.798Z" fill="#AD263D"/>
<path d="M158.636 173.927C159.345 171.546 161.224 168.799 163.759 165.938C161.26 163.874 158.971 161.779 156.894 159.742L146.744 153.437C146.746 153.437 152.145 167.864 158.636 173.927Z" fill="#311E69"/>
<path d="M214.632 115.597C211.549 111.836 209.004 108.884 207.249 105.904C199.001 110.489 189.049 108.55 181.875 107.634C177.195 114.538 154.994 133.311 143.393 149.823C146.335 153.735 153.383 159.135 162.236 166.45C168.77 171.846 176.689 177.005 185.662 180.238C192.31 182.632 210.862 185.525 218.532 185.106C215.36 168.564 221.153 161.624 222.847 152.363C226.031 134.958 220.9 123.028 214.632 115.597Z" fill="#FF8F8F"/>
<path d="M200.106 88.2672C208.322 95.3551 220.491 98.8462 222.167 103.593C223.395 107.07 230.19 119.22 232.805 123.846C233.88 125.749 235.125 127.551 236.567 129.19C239.226 132.209 242.333 135.747 244.767 131.928C246.627 129.01 244.693 116.889 239.678 104.139C234.266 90.3796 213.856 76.9545 200.001 72.4082C195.941 71.0782 190.837 80.2722 200.106 88.2672Z" fill="#CFB992"/>
<path d="M239.779 132.101C239.779 132.101 240.367 136.307 240.686 136.981C241.179 138.026 241.82 137.797 242.578 138.557C243.335 139.316 243.105 141.682 245.241 140.288C246.523 139.451 247.593 137.531 246.629 134.285C245.663 131.039 243.672 129.439 243.672 129.439L239.779 132.101Z" fill="#AD263D"/>
<path d="M131.733 79.9673C131.733 79.9673 132.916 76.1464 132.914 75.4423C132.912 74.3533 132.275 74.2898 131.933 73.3383C131.591 72.3868 132.737 70.4625 130.358 70.7903C128.93 70.987 127.249 72.1943 126.773 75.3492C126.296 78.5041 127.353 80.6694 127.353 80.6694L131.733 79.9673Z" fill="#CFB992"/>
<path d="M239.676 104.138C235.266 92.925 220.896 81.9358 208.227 75.791C212.253 80.8934 219.881 90.2417 225.171 94.7351C232.657 101.098 239.661 116.747 239.777 119.674C239.857 121.733 238.94 127.781 238.389 131.187C240.57 133.414 242.871 134.898 244.765 131.925C246.625 129.012 244.691 116.889 239.676 104.138Z" fill="#AD263D"/>
<path d="M191.059 181.389C193.117 183.603 197.925 187.388 207.462 188.622C207.009 186.821 206.954 184.95 207.209 183.032C201.565 183.34 196.164 182.7 191.059 181.389Z" fill="#311E69"/>
<path d="M214.632 115.597C211.549 111.836 209.004 108.886 207.249 105.904C203.774 107.835 199.996 108.607 196.253 108.786C198.91 116.012 208.002 124.633 207.407 133.311C206.73 143.175 186.428 154.881 181.349 170.829C180.588 173.218 179.979 175.496 179.487 177.644C181.484 178.6 183.545 179.475 185.664 180.238C192.312 182.632 210.864 185.525 218.534 185.106C215.362 168.564 221.155 161.624 222.849 152.363C226.031 134.958 220.9 123.028 214.632 115.597Z" fill="#D95F76"/>
<path d="M102.691 65.6732C102.691 65.6732 103.773 58.1582 111.58 56.4518C124.634 53.595 130.368 64.1212 131.347 69.5386C132.323 74.9539 109.937 71.5728 102.691 65.6732Z" fill="#614CD4"/>
<path d="M114.341 263.449C115.733 261.373 116.114 259.087 116.275 257.209L123.198 257.18C123.198 257.18 122.736 259.563 123.911 261.419C124.423 262.229 125.91 262.828 127.962 263.682C131.212 265.338 135.223 267.473 135.364 268.583C135.603 270.434 116.507 270.457 113.326 268.676C111.662 267.744 112.814 265.724 114.341 263.449Z" fill="#E0E0E0"/>
<path d="M13.0618 203.91C15.4027 204.775 17.7077 204.608 19.5657 204.321L21.2296 211.06C21.2296 211.06 18.8107 211.174 17.2902 212.755C16.6259 213.445 16.3981 215.037 16.0543 217.236C15.2171 220.793 14.0952 225.204 13.0534 225.605C11.3177 226.276 6.78353 207.674 7.75785 204.156C8.2661 202.316 10.4952 202.963 13.0618 203.91Z" fill="#E0E0E0"/>
<path d="M143.857 85.1756C143.857 85.1756 148.862 111.277 146.999 119.761C145.137 128.244 129.021 132.342 124.727 121.471C120.435 110.601 124.47 80.9592 143.857 85.1756Z" fill="#614CD4"/>
<path d="M64.4288 180.158C69.6737 175.578 65.2914 146.429 71.3693 132.97C75.9857 122.749 83.156 118.109 83.5483 111.131C89.4701 116.367 112.953 123.677 125.003 117.215C132.726 138.335 142.936 164.891 141.755 182.192C141.063 192.336 133.823 211.034 131.602 225.284C129.997 235.584 126.172 258.013 126.172 258.013C126.172 258.013 100.957 263.627 99.7132 251.124C98.5786 239.707 113.263 196.44 113.581 192.456C115.865 163.87 101.012 153.69 101.012 153.69C101.012 153.69 91.6676 189.659 78.5417 202.128C74.8068 205.674 48.8608 222.74 30.3318 224.777C21.3647 225.762 16.1177 202.382 16.1177 202.382C16.1177 202.382 60.3375 183.732 64.4288 180.158Z" fill="#FF8F8F"/>
<path d="M74.1277 127.832C73.1597 129.388 72.2212 131.084 71.3692 132.97C70.2916 135.358 69.5429 138.242 69.0115 141.39C79.2693 141.807 96.457 136.144 96.457 136.144L74.1277 127.832Z" fill="#311E69"/>
<path d="M103.457 75.7107C95.6199 85.0231 56.8769 95.177 56.8769 95.177C56.8769 95.177 57.575 127.17 53.4647 133.776C49.3544 140.381 37.5276 134.681 34.5835 127.424C30.9941 118.574 32.3122 95.0861 38 84.7799C47.1506 68.2041 90.2548 62.8079 98.8866 62.5457C107.278 62.2919 106.593 71.987 103.457 75.7107Z" fill="#614CD4"/>
<path d="M125.003 117.217C119.212 120.323 110.783 120.243 102.929 118.746C107.514 130.528 114.526 146.137 121.024 150.808C131.882 158.613 134.759 177.614 130.529 188.132C126.298 198.649 120.884 187.294 122.238 202.982C123.244 214.65 111.989 236.69 100.514 241.982C99.8353 245.818 99.5021 249.017 99.713 251.128C100.957 263.631 126.172 258.017 126.172 258.017C126.172 258.017 129.997 235.59 131.602 225.288C133.823 211.036 141.063 192.34 141.754 182.196C142.935 164.893 132.728 138.337 125.003 117.217Z" fill="#D95F76"/>
<path d="M130.164 126.718C131.855 121.964 125.098 108.423 129.938 100.99C133.645 95.298 145.38 96.1184 143.855 85.1757C142.442 75.0197 125.511 65.1237 117.266 63.9755C110.483 63.0324 99.4156 60.8079 93.3799 65.0475C86.5217 69.8623 74.7455 109.188 73.8155 128.333C73.4232 136.535 124.729 141.987 130.164 126.718Z" fill="#614CD4"/>
<path d="M143.857 85.1756C143.075 79.5595 137.549 74.0257 131.37 70.0039C131.275 71.1669 129.924 71.8435 127.834 72.1163C127.861 74.6157 127.745 77.2144 127.391 79.7223C124 103.644 102.691 91.4093 113.609 109.243C118.497 117.226 109.718 122.476 107.348 129.771C106.601 132.067 105.863 134.332 105.203 136.356C116.842 136.058 127.808 133.334 130.164 126.718C131.855 121.964 125.098 108.423 129.938 100.99C133.648 95.2979 145.38 96.1204 143.857 85.1756Z" fill="#311E69"/>
<path d="M129.997 55.0308C129.997 55.0308 132.547 52.9163 131.621 50.4211C130.695 47.926 127.235 44.8219 124.386 46.2259C121.536 47.63 121.635 49.8523 121.635 49.8523C121.635 49.8523 119.678 50.3619 119.05 52.4595C118.421 54.5571 118.898 59.5728 118.898 59.5728C118.898 59.5728 128.563 58.4986 129.997 55.0308Z" fill="#311E69"/>
<path d="M120.773 56.4517L118.054 60.9789C115.688 64.9182 117.373 70.1622 121.682 71.7333C122.704 72.1055 123.643 72.2155 124.316 71.8814C125.104 71.4902 125.22 70.0544 124.919 68.4051L122.957 59.3549L120.773 56.4517Z" fill="#CFB992"/>
<path d="M123.352 61.1733C121.814 60.539 119.722 59.6445 119.722 59.6445C119.722 59.6445 119.305 62.2285 121.114 64.639C122.072 65.9141 123.343 66.7049 124.632 67.0834L123.352 61.1733Z" fill="#311E69"/>
<path d="M123.591 53.4975L120.119 58.6294C119.109 60.4099 119.693 62.6766 121.442 63.736C122.84 64.5818 123.82 64.8673 125.826 65.1887C127.496 65.4572 128.77 64.142 129.377 62.019C130.166 59.2659 130.111 56.5043 129.997 55.0305C129.742 51.6684 126.096 50.3172 123.591 53.4975Z" fill="#CFB992"/>
<path d="M120.119 58.6295L123.59 53.4976C123.896 53.1085 124.221 52.7892 124.554 52.5312C124.145 53.6435 123.434 56.09 123.624 56.5911C124.109 57.8789 124.328 56.8872 126.241 57.3756C127.46 57.6865 128.962 58.7247 129.894 59.4373C129.788 60.2725 129.63 61.1437 129.379 62.0212C128.772 64.1442 127.498 65.4595 125.828 65.1909C123.822 64.8695 122.841 64.5841 121.443 63.7382C119.691 62.6768 119.109 60.41 120.119 58.6295Z" fill="#311E69"/>
<path d="M125.792 58.5979C125.792 58.5979 127.034 59.3126 128.989 59.6235C128.989 59.6235 128.687 60.871 127.818 61.0846C126.95 61.2982 125.817 60.1986 125.792 58.5979Z" fill="white"/>
<path d="M126.929 63.2288C125.225 62.345 123.068 64.6963 120.6 61.1714C120.14 60.5138 120.157 59.2577 120.195 58.5198L120.119 58.6318C119.109 60.4123 119.693 62.679 121.442 63.7384C122.84 64.5842 123.82 64.8697 125.826 65.1911C126.845 65.3539 127.716 64.9268 128.378 64.0873C128.04 64.0471 127.45 63.4974 126.929 63.2288Z" fill="#1E1240"/>
<path d="M123.086 55.8301C123.111 55.4474 123.194 55.071 123.299 54.7031C123.499 54.001 123.634 52.91 122.449 53.1256C120.724 53.4386 119.729 56.8451 121.378 57.6253C122.605 58.2047 123.023 56.7965 123.086 55.8301Z" fill="#CFB992"/>
<path d="M146.375 121.539C146.375 121.539 140.894 137.362 101.014 132.314C68.1195 128.151 73.8832 108.374 97.366 109.877C120.849 111.381 149.967 103.303 146.375 121.539Z" fill="#614CD4"/>
<path d="M143.857 85.1756C143.089 85.0085 143.975 105.335 142.881 109.355C141.018 116.198 137.345 120.101 131.821 122.476C126.298 124.85 109.039 126.417 99.5633 123.514C90.4718 120.727 81.0091 119.917 78.3434 121.165C79.8196 125.813 86.8107 130.519 101.01 132.317C140.89 137.364 146.371 121.541 146.371 121.541C146.373 121.535 146.373 121.526 146.375 121.52C146.647 120.96 146.862 120.374 146.997 119.763C148.861 111.279 143.857 85.1756 143.857 85.1756Z" fill="#311E69"/>
<path d="M83.6197 120.256C83.3308 118.513 82.0254 117.116 80.3087 116.71C78.9654 116.392 77.5566 116.096 77.1074 116.132C75.6628 116.251 75.5995 117.213 74.3489 117.826C73.0983 118.439 70.5065 116.925 71.0211 120.461C71.329 122.582 72.9866 124.975 77.1875 125.358C78.1365 125.445 79.016 125.419 79.8089 125.326C82.2932 125.039 84.0289 122.728 83.6197 120.256Z" fill="#CFB992"/>
<path d="M87.7218 168.452C85.1826 179.141 78.7546 187.793 71.308 193.9C63.8635 200.007 42.8819 201.026 31.8839 203.91C27.3539 205.099 22.3368 207.071 18.0009 208.981C20.2701 215.813 24.5195 225.417 30.3338 224.778C48.8628 222.742 74.8088 205.676 78.5437 202.13C91.6718 189.66 101.014 153.692 101.014 153.692C101.014 153.692 90.2588 157.765 87.7218 168.452Z" fill="#D95F76"/>
<path d="M55.1958 89.0538C48.9723 86.6792 46.604 86.0004 46.7727 93.4647C46.9225 100.066 44.5542 117.149 32.8855 119.368C33.1997 122.597 33.7607 125.398 34.5832 127.424C37.5272 134.681 49.3541 140.382 53.4643 133.776C57.5746 127.17 56.8766 95.1774 56.8766 95.1774C56.8766 95.1774 79.151 89.3392 93.3377 82.4543C89.0376 82.7694 80.8761 83.5349 73.8175 85.1736C63.6926 87.5271 61.4192 91.4284 55.1958 89.0538Z" fill="#311E69"/>
<path d="M50.6597 133.501C51.4969 133.755 52.2034 136.465 52.448 137.798C52.9162 140.341 54.0782 141.587 54.9619 142.206C55.8455 142.828 54.0318 143.534 52.8572 142.473C51.6804 141.413 50.5268 138.874 50.3307 140.25C50.1367 141.627 51.8702 148.711 48.8144 148.017C42.2324 146.526 42.9115 138.533 44.257 134.283C44.257 134.285 45.5012 131.938 50.6597 133.501Z" fill="#CFB992"/>
<defs>
<linearGradient id="paint0_linear" x1="179.234" y1="62.4394" x2="179.521" y2="69.0758" gradientUnits="userSpaceOnUse">
<stop stop-color="white"/>
<stop offset="0.0933" stop-color="#F2EEF6"/>
<stop offset="0.3877" stop-color="#CBBFDB"/>
<stop offset="0.6475" stop-color="#AF9CC8"/>
<stop offset="0.8605" stop-color="#9E87BC"/>
<stop offset="1" stop-color="#987FB8"/>
</linearGradient>
</defs>
</svg>
