<svg width="342" height="278" viewBox="0 0 342 278" fill="none" xmlns="http://www.w3.org/2000/svg">
<path d="M140.529 163.444L83.2822 167.554C80.6023 167.746 78.7301 170.291 79.3438 172.907L101.854 268.775C103.113 274.133 107.893 277.921 113.396 277.921H229.033L264.376 274.152C266.802 273.893 268.775 272.077 269.233 269.68L287.957 171.736C288.779 167.432 285.48 163.444 281.099 163.444H140.529Z" fill="#FFD2D2"/>
<path d="M91.7409 176.795H230.611C233.844 176.795 236.34 179.635 235.926 182.841L226.264 257.623C225.927 260.226 223.712 262.174 221.087 262.174H111.517L88.6722 180.844C88.1011 178.81 89.6291 176.795 91.7409 176.795Z" fill="#EBA4A2"/>
<path d="M114.635 273.685C114.635 273.685 113.197 270.567 116.315 269.848C119.433 269.128 207.689 269.368 214.164 269.848C220.64 270.328 220.64 272.966 207.449 273.685C194.258 274.405 119.671 277.043 114.635 273.685Z" fill="#FFE9E9"/>
<path d="M281.1 163.444H243.362L242.224 171.825L227.145 277.922H229.033L264.376 274.153C266.803 273.894 268.775 272.078 269.233 269.681L287.957 171.737C288.78 167.433 285.481 163.444 281.1 163.444Z" fill="#FFBFBF"/>
<path d="M232.266 257.626L246.201 181.697C246.738 178.768 249.087 176.511 252.036 176.091L278.579 172.307C280.999 171.962 283.026 174.125 282.526 176.517L265.848 256.248C265.539 257.729 264.306 258.839 262.8 258.991L236.032 261.706C233.73 261.94 231.848 259.901 232.266 257.626Z" fill="#EBA4A2"/>
<path d="M111.517 262.173H221.087C223.711 262.173 225.927 260.226 226.264 257.623L231.407 217.815C222.206 218.203 208.751 219.728 196.416 221.962C176.11 225.64 178.509 227.399 158.843 229.158C139.177 230.916 133.901 225.64 115.834 226.6C108.569 226.986 104.95 229.621 103.219 232.634L111.517 262.173Z" fill="#EFBB60"/>
<path d="M113.436 257.937C113.436 257.937 122.23 252.5 129.424 251.701C136.619 250.902 223.117 250.582 223.117 250.582C223.117 250.582 219.76 251.861 216.722 252.501C213.684 253.141 131.663 254.1 127.346 255.059C123.029 256.018 113.436 257.937 113.436 257.937Z" fill="#DE9515"/>
<path d="M101.284 201.177C101.284 201.177 93.4502 183.296 94.8891 182.003C96.3279 180.711 177.55 180.711 190.981 181.191C204.411 181.671 213.045 180.921 214.324 180.896C215.603 180.871 198.975 187.426 190.502 187.106C182.028 186.786 168.718 183.429 162.262 185.507C155.807 187.586 131.184 189.025 122.71 189.025C114.235 189.026 103.843 185.716 101.284 201.177Z" fill="#FFB0AE"/>
<path d="M286.64 166.191C285.376 164.538 283.389 163.444 281.1 163.444H140.529L83.2823 167.554C80.9757 167.719 79.2722 169.629 79.2324 171.825H242.224L286.64 166.191Z" fill="#FFE6E6"/>
<path d="M279.369 172.287C279.284 176.314 278.697 182.073 276.36 186.468C272.362 193.982 273.162 194.142 269.484 204.695C265.807 215.248 256.374 228.518 250.458 226.6C246.482 225.31 241.714 222.541 239.013 220.864L232.266 257.627C231.848 259.902 233.73 261.941 236.031 261.708L262.799 258.993C264.304 258.841 265.537 257.731 265.847 256.25L282.525 176.519C282.97 174.392 281.418 172.452 279.369 172.287Z" fill="#EFBB60"/>
<path d="M229.273 275.35C229.273 275.35 231.672 267.569 232.87 266.49C234.07 265.411 266.326 260.135 266.326 262.174C266.326 264.212 266.566 270.567 264.168 270.687C261.769 270.808 229.273 275.35 229.273 275.35Z" fill="#FFD2D2"/>
<path d="M112.477 207.892C112.477 207.892 110.398 200.378 119.991 197.819C129.584 195.261 150.689 200.697 158.524 197.979C166.358 195.261 170.831 191.744 175.469 196.38C180.108 201.017 169.076 223.72 153.727 222.121C138.378 220.524 112.157 216.846 112.477 207.892Z" fill="#FFB0AE"/>
<path d="M163.853 236.273C185.011 236.273 202.163 227.784 202.163 217.312C202.163 206.84 185.011 198.351 163.853 198.351C142.695 198.351 125.543 206.84 125.543 217.312C125.543 227.784 142.695 236.273 163.853 236.273Z" fill="#FFE6E6"/>
<path d="M205.242 145.538L162.086 145.473L161.785 167.313H161.802C161.802 169.281 171.59 170.876 183.664 170.876C195.738 170.876 205.526 169.281 205.526 167.313L205.242 145.538Z" fill="#C98624"/>
<path d="M205.526 167.312L205.242 145.538L183.728 145.506C185.356 148.092 188.158 162.657 186.976 164.608C186.094 166.063 185.399 168.625 185.318 170.866C196.619 170.727 205.526 169.189 205.526 167.312Z" fill="#AA6F22"/>
<path d="M205.242 145.473C205.242 147.442 195.581 149.037 183.664 149.037C171.747 149.037 162.086 147.442 162.086 145.473C162.086 143.506 171.747 141.91 183.664 141.91C195.581 141.91 205.242 143.505 205.242 145.473Z" fill="#F7C263"/>
<path d="M194.484 125.026L172.835 124.993L172.685 144.717H172.693C172.693 145.704 177.603 146.504 183.66 146.504C189.717 146.504 194.627 145.704 194.627 144.717L194.484 125.026Z" fill="#C98624"/>
<path d="M194.627 144.717L194.484 125.026L183.692 125.01C184.509 126.307 185.914 142.381 185.322 143.361C184.879 144.091 184.53 145.375 184.49 146.5C190.159 146.43 194.627 145.659 194.627 144.717Z" fill="#AA6F22"/>
<path d="M194.485 124.993C194.485 125.98 189.639 126.78 183.66 126.78C177.682 126.78 172.836 125.98 172.836 124.993C172.836 124.006 177.682 123.206 183.66 123.206C189.639 123.206 194.485 124.006 194.485 124.993Z" fill="#F7C263"/>
<path d="M175.47 134.437C175.47 135.776 175.159 136.861 174.777 136.861C174.395 136.861 174.085 135.776 174.085 134.437C174.085 133.098 174.395 132.013 174.777 132.013C175.159 132.013 175.47 133.099 175.47 134.437Z" fill="#AA6F22"/>
<path opacity="0.53" d="M155.326 167.634C155.326 167.634 143.334 124.592 149.729 110.521C156.125 96.4507 203.52 90.6953 214.393 110.521C225.265 130.347 208.408 167.634 208.408 167.634C208.408 167.634 189.222 176.141 155.326 167.634Z" fill="#FFD2D2"/>
<path opacity="0.7" d="M214.393 110.523C203.521 90.6974 156.125 96.4538 149.729 110.523C143.334 124.593 155.326 167.636 155.326 167.636C156.367 167.897 157.393 168.142 158.406 168.372C156.078 157.816 149.908 127.01 154.426 115.575C159.918 101.679 200.612 95.9942 209.947 115.575C217.537 131.495 209.388 158.814 206.075 168.473C207.617 167.986 208.407 167.635 208.407 167.635C208.407 167.635 225.266 130.349 214.393 110.523Z" fill="#FFD2D2"/>
<path d="M175.93 105.616C175.93 105.616 162.194 109.456 158.611 114.96C155.027 120.463 155.283 133.519 158.739 137.999C162.194 142.478 160.494 120.332 166.291 115.984C172.434 111.375 184.034 103.439 175.93 105.616Z" fill="#FFD2D2"/>
<path d="M182.267 105.246C182.267 105.246 193.619 103.967 197.617 107.084C201.614 110.202 193.38 110.442 187.783 109.082C182.187 107.724 179.469 105.805 182.267 105.246Z" fill="#FFD2D2"/>
<path d="M149.71 116.118C149.71 116.118 150.19 110.19 153.907 107.427C157.625 104.665 165.539 100.409 172.195 100.288C178.85 100.168 171.055 102.147 167.038 103.586C163.021 105.025 153.368 109.881 152.888 112.939C152.408 115.998 148.452 119.895 149.71 116.118Z" fill="#FFE9E9"/>
<path d="M159.003 150.413C159.003 150.413 164.595 157.968 175.47 158.927C186.344 159.886 188.503 160.606 184.665 162.285C180.828 163.963 170.635 166.002 164.64 162.285C158.644 158.567 159.003 150.413 159.003 150.413Z" fill="#FFA8A8"/>
<path d="M183.525 172.576C167.284 172.576 154.248 168.637 153.421 168.382C151.396 167.756 151.582 166.148 152.208 164.123C152.832 162.099 153.656 160.425 155.683 161.048C155.97 161.136 184.642 169.759 208.413 160.785C210.393 160.037 211.657 161.3 212.406 163.283C213.154 165.266 213.107 167.216 211.124 167.965C201.932 171.435 192.265 172.576 183.525 172.576Z" fill="#CFB992"/>
<path d="M193.779 169.959C193.779 169.959 196.554 207.739 196.777 228.957C196.881 238.808 195.371 252.101 195.371 252.101C195.371 252.101 199.535 248.743 200.015 245.745L202.294 252.101C202.294 252.101 206.806 234.844 205.527 215.527C203.733 188.427 200.518 168.254 200.518 168.254L193.779 169.959Z" fill="#CFB992"/>
<path d="M200.254 169.042C200.254 169.042 210.327 200.748 212.246 223.772C214.164 246.795 215.05 247.275 215.05 247.275L218.481 237.562L222.918 245.236C222.918 245.236 222.078 221.204 219.2 208.159C216.323 195.112 207.089 166.573 207.089 166.573L200.254 169.042Z" fill="#AD263D"/>
<path d="M212.257 162.917C207.02 164.348 193.698 167.863 189.914 167.634C185.17 167.348 182.028 168.72 165.239 166.572C157.51 165.583 153.849 164.841 152.147 164.329C151.574 166.255 151.466 167.778 153.421 168.381C154.247 168.636 167.284 172.575 183.526 172.575C192.265 172.575 201.933 171.434 211.124 167.965C213.106 167.216 213.154 165.266 212.405 163.283C212.358 163.159 212.308 163.036 212.257 162.917Z" fill="#AD263D"/>
<path d="M273.733 163.212C273.492 162.97 269.738 155.557 267.668 155.618C265.598 155.678 266.863 167.247 270.299 168.938C273.735 170.631 276.075 169.58 275.466 167.452C274.855 165.322 273.733 163.212 273.733 163.212Z" fill="#AD263D"/>
<path d="M281.097 142.163C281.097 142.163 263.953 159.445 270.236 166.165C279.76 176.352 290.393 151.256 291.023 149.72C291.655 148.184 285.971 138.794 281.097 142.163Z" fill="#AD263D"/>
<path d="M296.016 120.237C290.534 118.371 281.097 142.163 281.097 142.163C281.097 142.163 283.289 147.355 291.023 149.72C296.801 140.345 302.044 122.288 296.016 120.237Z" fill="#EAE8FF"/>
<path d="M305.923 261.334C304.879 259.78 304.592 258.072 304.467 256.668L299.275 256.651C299.275 256.651 299.622 258.432 298.743 259.823C298.36 260.428 297.245 260.876 295.707 261.517C293.273 262.757 290.266 264.356 290.159 265.187C289.981 266.571 304.3 266.575 306.685 265.242C307.933 264.543 307.068 263.034 305.923 261.334Z" fill="#311E69"/>
<path d="M334.889 261.334C333.845 259.78 333.558 258.072 333.433 256.668L328.241 256.651C328.241 256.651 328.588 258.432 327.709 259.823C327.326 260.428 326.211 260.876 324.674 261.517C322.239 262.757 319.233 264.356 319.125 265.187C318.947 266.571 333.267 266.575 335.651 265.242C336.9 264.543 336.034 263.034 334.889 261.334Z" fill="#311E69"/>
<path d="M296.923 136.174L291.896 127.826C291.896 127.826 288.911 145.055 291.597 148.757C293.654 145.194 295.592 140.621 296.923 136.174Z" fill="#311E69"/>
<path d="M328.466 214.765C328.479 205.676 334.311 190.338 332.296 178.646C331.472 173.862 330.737 162.134 330.329 158.654C330.281 158.254 330.253 157.855 330.237 157.461C316.492 159.217 302.939 155.909 299.702 155.036C299.226 157.656 298.197 160.167 296.648 162.39C290.74 170.865 290.184 191.477 290.157 205.9C290.098 238.164 295.956 257.342 299.057 258.288C301.665 259.085 304.781 258.901 308.033 258.298C316.912 256.655 306.032 216.297 304.454 213.451C303.663 212.025 310.975 186.513 310.975 186.513C311.561 188.765 305.553 242.389 325.825 258.53C327.815 260.114 342.994 258.714 341.948 255.762C337.607 243.509 328.449 225.555 328.466 214.765Z" fill="#614CD4"/>
<path d="M334.535 174.877C329.659 158.035 333.378 135.408 331.189 128.839C328.362 120.357 323.588 110.954 302.782 115.749C296.276 117.249 290.786 120.918 291.429 127.562C292.055 134.027 295.633 154.261 293.042 163.051C290.893 170.336 306.172 177.102 315.688 177.079C325.691 177.058 334.952 176.323 334.535 174.877Z" fill="white"/>
<path d="M222.264 84.5596C222.264 84.5596 198.775 63.2806 207.653 63.7307C216.532 64.1826 229.957 74.5071 229.764 80.3904C229.568 86.2737 222.264 84.5596 222.264 84.5596Z" fill="#6D59B5"/>
<path d="M232.812 73.8538C232.812 73.8538 237.005 52.5441 241.465 53.9901C245.925 55.436 247.614 57.9793 246.688 69.0372C245.761 80.0933 242.999 83.7358 240.519 83.033C238.039 82.3282 231.997 77.5481 232.812 73.8538Z" fill="#6D59B5"/>
<path d="M211.426 37.5527C211.288 37.1543 194.778 6.98719 202.115 5.89557C209.452 4.80203 213.387 20.5463 215.368 25.338C217.348 30.1296 217.578 38.2134 215.475 38.2727C213.374 38.3302 211.426 37.5527 211.426 37.5527Z" fill="#7C5AB8"/>
<path d="M213.269 36.8919C213.188 36.6602 203.611 19.1597 207.866 18.5258C212.123 17.8919 214.406 27.0252 215.555 29.8059C216.704 32.5867 216.838 37.2749 215.619 37.3094C214.399 37.3439 213.269 36.8919 213.269 36.8919Z" fill="#9966CC"/>
<path d="M213.872 25.7439C213.24 24.7327 207.677 -0.956799 214.504 0.0275772C221.331 1.01195 222.613 20.3605 223.103 27.795C223.593 35.2296 224.388 45.0791 220.615 40.4521C216.84 35.8252 213.872 25.7439 213.872 25.7439Z" fill="#7C5AB8"/>
<path d="M217.068 12.4012C212.936 11.8056 213.761 21.8811 214.964 29.0475C216.159 32.4067 218.225 37.522 220.615 40.454C224.388 45.081 223.593 35.2315 223.103 27.7969C222.973 25.8282 222.787 23.0187 222.458 19.9411C221.303 15.8944 219.602 12.7651 217.068 12.4012Z" fill="#9966CC"/>
<path d="M217.798 20.9025C214.829 20.4735 215.423 27.7108 216.285 32.8567C217.143 35.2698 218.627 38.943 220.343 41.0477C223.053 44.3705 222.48 37.2979 222.13 31.9585C222.036 30.5433 221.902 28.5266 221.666 26.3166C220.839 23.4132 219.619 21.1649 217.798 20.9025Z" fill="#AC79E8"/>
<path d="M221.165 41.8884C221.165 41.8884 215.149 17.0262 222.867 17.032C230.585 17.0377 230.411 38.1214 229.172 43.2482C227.931 48.3731 222.086 46.322 221.165 41.8884Z" fill="#7C5AB8"/>
<path d="M224.805 27.6628C220.462 27.6609 220.468 35.534 221.305 42.4189C222.561 46.4771 227.981 48.1643 229.17 43.2462C229.653 41.2469 229.974 36.8248 229.729 32.1691C228.651 29.4784 227.069 27.6648 224.805 27.6628Z" fill="#9966CC"/>
<path d="M215.257 37.6751C215.257 37.6751 204.31 18.6617 199.629 23.8651C194.949 29.0686 209.929 51.713 214.59 54.4574C219.252 57.1999 220.86 56.6809 220.175 53.0977C219.491 49.5145 215.257 37.6751 215.257 37.6751Z" fill="#7C5AB8"/>
<path d="M204.746 32.5427C202.749 34.7624 204.333 40.1573 207.165 45.828C210.047 50.0796 212.954 53.4962 214.59 54.4595C219.251 57.2019 220.86 56.6829 220.175 53.0997C219.661 50.4166 217.162 43.1123 215.936 39.6076C212.357 34.7317 207.481 29.5015 204.746 32.5427Z" fill="#AC79E8"/>
<path d="M220.058 60.1645C220.058 60.1645 206.116 34.8982 213.246 31.8762C220.374 28.856 225.615 39.1249 229.854 49.7252C234.092 60.3254 223.365 70.9812 220.058 60.1645Z" fill="#7C5AB8"/>
<path d="M220.058 60.1645C220.058 60.1645 206.116 34.8982 213.246 31.8762C220.374 28.856 225.615 39.1249 229.854 49.7252C234.092 60.3254 223.365 70.9812 220.058 60.1645Z" fill="#9966CC"/>
<path d="M230.823 55.1908C227.806 47.7352 224.083 40.6933 219.06 42.821C213.928 44.9966 223.965 63.1865 223.965 63.1865C224.143 63.7706 224.355 64.2571 224.587 64.6746C227.554 64.4716 230.656 60.3272 230.823 55.1908Z" fill="#AC79E8"/>
<path d="M228.507 63.0467C228.507 63.0467 223.767 38.6365 227.793 37.3514C231.82 36.0664 235.737 36.7194 237.729 41.1721C239.722 45.6248 238.987 55.1085 238.428 61.8708C237.868 68.6332 239.9 73.3214 235.653 71.818C231.409 70.3146 228.507 63.0467 228.507 63.0467Z" fill="#6D59B5"/>
<path d="M236.369 54.1338C236.369 54.1338 234.992 45.6248 230.844 45.5004C227.207 45.3893 228.817 60.8769 229.271 64.6976C230.399 66.9345 232.701 70.7724 235.656 71.8181C239.902 73.3195 237.87 68.6332 238.431 61.8709C238.592 59.9308 238.767 57.7648 238.887 55.5586C237.635 54.624 236.369 54.1338 236.369 54.1338Z" fill="#9966CC"/>
<path d="M233.408 52.8929C231.099 50.5814 230.346 60.8867 230.112 66.2433C231.374 68.3959 233.307 70.9851 235.655 71.8163C239.374 73.132 238.277 69.6982 238.324 64.2822C238.324 64.2822 236.499 55.9859 233.408 52.8929Z" fill="#AC79E8"/>
<path d="M228.31 81.7442C228.31 81.7442 217.35 61.3902 221.72 54.9822C226.09 48.5723 232.387 60.2718 234.653 68.0874C236.92 75.9011 231.171 87.6658 228.31 81.7442Z" fill="#7C5AB8"/>
<path d="M219.305 70.8834C219.305 70.8834 200.77 51.3147 206.418 46.0002C212.066 40.6857 214.619 50.9393 217.687 54.4287C220.755 57.918 227.079 68.4723 228.182 71.3278C229.285 74.1832 223.899 78.9634 219.305 70.8834Z" fill="#6D59B5"/>
<path d="M224.495 76.2784C224.495 76.2784 209.919 60.8884 214.36 56.7096C218.801 52.5288 220.808 60.5935 223.222 63.3378C225.635 66.0822 230.608 74.3824 231.476 76.6269C232.343 78.8734 228.107 82.6328 224.495 76.2784Z" fill="#9966CC"/>
<path d="M225.751 76.0295C225.751 76.0295 217.116 66.9116 219.747 64.4353C222.379 61.959 223.568 66.7373 224.997 68.3632C226.427 69.9892 229.373 74.9072 229.886 76.2363C230.399 77.5673 227.891 79.7946 225.751 76.0295Z" fill="#AC79E8"/>
<path d="M231.667 88.8512C231.667 88.8512 222.021 70.9371 225.866 65.2951C229.714 59.6551 235.256 69.9508 237.25 76.8299C239.243 83.7091 234.186 94.0623 231.667 88.8512Z" fill="#9966CC"/>
<path d="M230.719 82.1846C230.719 82.1846 225.483 67.011 229.214 70.1097C232.945 73.2084 235.053 75.9834 235.733 79.5494C236.411 83.1154 232.242 86.576 230.719 82.1846Z" fill="#6D6D2F"/>
<path d="M219.332 73.5398C218.361 72.3505 214.316 68.7558 211.204 69.4548C209.335 69.8762 211.541 73.3713 213.6 76.0984C217.869 80.5798 222.262 84.5595 222.262 84.5595C222.262 84.5595 229.566 86.2735 229.762 80.3902C229.861 77.372 226.37 73.1836 221.751 69.7593C218.851 69.2786 220.075 74.4476 219.332 73.5398Z" fill="#7C5AB8"/>
<path d="M244.234 69.6789C244.234 69.6789 243.985 67.0303 242.534 63.9565C241.082 60.8827 236.007 75.6158 236.007 75.6158C235.66 76.558 235.534 78.0691 235.651 79.7812C237.328 81.4205 239.332 82.6941 240.521 83.0331C243.003 83.7379 245.763 80.0953 246.69 69.0373C246.722 68.639 246.753 68.254 246.778 67.8768C245.652 67.306 244.234 69.6789 244.234 69.6789Z" fill="#7C5AB8"/>
<path d="M230.118 94.4607C227.849 94.9586 225.451 94.6101 223.323 93.4572C218.723 90.9656 211.306 86.3616 214.268 83.9639C218.459 80.5722 224.849 84.165 224.849 84.165C224.849 84.165 218.258 78.7068 223.371 74.7521C228.484 70.7974 233.383 81.6868 233.383 81.6868C233.383 81.6868 233.885 70.3741 237.993 71.1287C243.009 72.0498 242.515 78.9998 242.515 78.9998C242.515 78.9998 248.218 70.9429 251.479 74.5433C254.743 78.1438 248.81 89.4028 240.475 91.8121C236.122 93.0722 232.543 93.9302 230.118 94.4607Z" fill="#6D59B5"/>
<path d="M232.037 90.797C230.554 91.5669 230.003 93.4035 230.801 94.8724C231.924 96.9331 237.033 99.4285 239.173 98.8003C244.211 97.3199 246.9 91.5152 244.108 88.3112C242.128 86.0379 235.647 88.924 232.037 90.797Z" fill="#6D6D2F"/>
<path d="M249.668 77.619C247.168 76.0505 241.408 84.6246 241.408 84.6246C241.408 84.6246 241.735 75.9011 238.734 75.2653C235.733 74.6295 235.092 87.0414 235.092 87.0414C235.092 87.0414 231.204 80.6756 228.059 80.3136C224.915 79.9516 229.421 88.2288 229.421 88.2288C229.421 88.2288 223.662 86.6488 220.435 86.6967C218.175 86.7293 221.709 91.1513 224.03 93.8019C225.976 94.6732 228.097 94.9069 230.122 94.4626C232.546 93.9321 236.124 93.0741 240.481 91.8159C244.945 90.5251 248.716 86.6967 250.759 82.8665C251.142 80.4936 250.974 78.4406 249.668 77.619Z" fill="#7C5AB8"/>
<path d="M239.395 81.1487C238.5 77.1346 236.133 89.8855 236.133 89.8855C236.133 89.8855 235.08 89.0582 232.623 87.6754C230.75 86.6202 233.795 91.0499 235.348 93.2159C236.597 92.8961 237.957 92.5303 239.414 92.1205C240.14 88.8054 239.918 83.4909 239.395 81.1487Z" fill="#9966CC"/>
<path d="M293.859 225.235C293.281 225.436 292.635 225.172 292.367 224.607C291.733 223.263 276.832 191.46 274.122 172.845C271.422 154.291 252.579 127.972 247.76 122.563C242.421 116.571 237.685 97.4291 237.485 96.6171C237.327 95.9679 237.719 95.3091 238.374 95.154C239.023 94.995 239.678 95.3914 239.837 96.0407C239.885 96.2341 244.627 115.408 249.568 120.953C254.49 126.476 273.741 153.403 276.518 172.496C279.176 190.757 294.405 223.249 294.558 223.575C294.844 224.18 294.583 224.9 293.978 225.185C293.94 225.207 293.899 225.222 293.859 225.235Z" fill="#6D6D2F"/>
<path d="M261.03 137.773C261.03 137.773 262.708 127.964 264.904 123.956C267.101 119.947 265.525 108.022 269.386 102.41C273.247 96.799 280.277 91.4539 283.14 91.8273C283.14 91.8273 271.487 103.048 272.126 109.318C272.766 115.588 271.425 125.509 269.007 128.881C266.59 132.256 261.03 137.773 261.03 137.773Z" fill="#6D6D2F"/>
<path d="M260.919 139.179C260.919 139.179 252.791 134.824 247.343 131.932C241.894 129.038 226.592 124.613 226.592 124.613C226.592 124.613 238.424 137.591 246.276 140.847C254.126 144.099 260.919 139.179 260.919 139.179Z" fill="#6D6D2F"/>
<path d="M277.19 180.517C277.19 180.517 285.086 173.24 285.216 168.201C285.346 163.162 277.707 155.917 276.474 151.384C275.242 146.851 277.613 140.389 277.613 140.389C277.613 140.389 280.65 155.05 283.54 157.467C286.43 159.883 292.727 167.201 290.833 172.077C288.937 176.951 277.19 180.517 277.19 180.517Z" fill="#6D6D2F"/>
<path d="M275.826 178.696C275.826 178.696 270.558 163.627 268.744 161.722C266.931 159.816 265.029 157.323 265.029 157.323C265.029 157.323 266.27 169.235 269.621 173.471C272.971 177.709 277.439 183.334 277.439 183.334L275.826 178.696Z" fill="#4F4E21"/>
<path d="M269.962 103.577C268.078 106.024 269.732 115.958 269.16 119.233C268.587 122.508 265.251 127.167 262.585 133.303C261.748 135.228 261.359 136.603 261.219 137.584C262.206 136.594 266.852 131.888 269.006 128.881C271.423 125.509 272.764 115.588 272.126 109.318C271.487 103.048 283.14 91.8274 283.14 91.8274C279.39 92.1032 271.845 101.129 269.962 103.577Z" fill="#4F4E21"/>
<path d="M317.434 177.068C326.742 176.968 334.929 176.237 334.535 174.875C329.659 158.033 333.38 135.406 331.189 128.837C329.251 123.027 326.397 116.783 318.105 114.972C318.055 117.09 317.668 120.001 316.678 124.009C313.581 136.551 300.484 144.398 302.441 156.377C303.257 161.377 316.178 159.123 316.343 160.759C316.931 166.556 317.482 170.872 317.434 177.068Z" fill="#EAE8FF"/>
<path d="M293.97 154.435C293.965 157.62 293.727 160.502 293.128 162.722C297.126 162.453 305.72 160.55 310.295 157.325C315.749 153.479 323.722 137.229 323.722 137.229L293.97 154.435Z" fill="#311E69"/>
<path d="M307.726 103.192C308.488 102.062 310.455 99.5952 314.919 102.16C317.845 103.841 316.313 111.651 314.699 112.63C313.441 113.392 311.112 108.673 310.145 106.555C309.04 106.553 308.116 106.438 307.852 106.089C307.078 105.065 307.209 103.958 307.726 103.192Z" fill="#311E69"/>
<path d="M314.204 108.598L316.8 115.399C316.85 116.4 311.582 119.399 309.948 118.199C309.469 117.848 309.559 116.883 309.952 115.826L312.308 110.057L314.204 108.598Z" fill="#CFB992"/>
<path d="M311.833 111.216C312.296 111.115 312.828 110.994 313.292 110.887C313.861 110.756 314.362 111.302 314.167 111.852C313.96 112.436 313.589 113.143 312.915 113.771C312.129 114.504 311.193 114.88 310.295 114.981L311.833 111.216Z" fill="#311E69"/>
<path d="M312.398 105.762L314.2 109.774C314.688 111.143 314.002 112.654 312.646 113.179C311.564 113.599 310.841 113.677 309.397 113.656C308.194 113.639 307.462 112.562 307.298 111.005C307.083 108.985 307.46 107.062 307.721 106.045C308.311 103.728 311.03 103.232 312.398 105.762Z" fill="#CFB992"/>
<path d="M310.011 109.073C310.011 109.073 309.054 109.42 307.646 109.397C307.646 109.397 307.704 110.306 308.286 110.563C308.868 110.818 309.797 110.188 310.011 109.073Z" fill="white"/>
<path d="M308.864 112.151C310.165 111.743 311.388 113.65 313.551 111.492C313.955 111.09 314.096 110.209 314.16 109.688L314.2 109.776C314.688 111.145 314.003 112.656 312.647 113.181C311.565 113.6 310.841 113.679 309.397 113.658C308.663 113.646 308.106 113.24 307.744 112.574C307.985 112.585 308.466 112.275 308.864 112.151Z" fill="#AD263D"/>
<path d="M311.068 104.603C311.068 104.603 312.254 106.039 312.244 106.882C312.237 107.725 312.162 108.087 312.461 108.282C312.758 108.477 313.493 107.757 313.384 106.897C313.273 106.038 312.69 103.921 311.068 104.603Z" fill="#311E69"/>
<path d="M312.892 107.677C312.997 107.426 313.062 107.162 313.11 106.894C313.204 106.384 313.462 105.649 314.15 106.16C315.15 106.903 314.502 109.59 313.204 109.565C312.239 109.546 312.627 108.311 312.892 107.677Z" fill="#CFB992"/>
<path d="M311.132 118.482C311.132 118.482 313.416 117.26 314.328 116.165C314.927 115.445 315.898 113.043 315.898 113.043C315.898 113.043 317.829 114.106 318.181 115.964L312.903 120.995C312.903 120.995 312.181 119.624 311.861 119.229C311.687 119.013 311.132 118.482 311.132 118.482Z" fill="#EAE8FF"/>
<path d="M311.132 118.482L310.798 117.611C310.634 117.18 310.331 115.027 310.368 114.801C310.368 114.801 309.092 116.349 308.606 116.96C308.119 117.571 307.865 118.086 307.865 118.086L309.492 120.822C309.492 120.822 310.477 118.476 311.132 118.482Z" fill="#EAE8FF"/>
<path d="M308.18 104.504C308.18 104.504 311.997 107.279 312.463 107.164C312.928 107.047 313.03 104.871 312.062 104.172C311.091 103.471 307.751 102.878 308.18 104.504Z" fill="#311E69"/>
<path d="M319.713 121.514C314.251 124.348 304.134 142.412 295.937 145.777C293.3 146.859 270.73 140.728 264.079 142.521C264.079 142.521 261.455 145.487 267.955 151.549C272.009 155.331 290.958 166.303 304.429 158.65C313.371 153.571 323.952 136.375 327.544 130.385C331.656 123.527 323.498 119.551 319.713 121.514Z" fill="#CFB992"/>
<path d="M321.027 139.478L307.652 145.761C307.652 145.761 298.835 158.053 292.829 156.526C286.823 155 287.464 156.053 279.72 154.682C271.975 153.313 274.618 148.758 268.698 146.085C266.515 145.099 264.862 144.967 263.646 145.191C263.933 146.679 265 148.793 267.955 151.549C272.009 155.331 290.958 166.303 304.429 158.65C310.26 155.337 316.787 146.874 321.619 139.725C321.259 139.562 321.027 139.478 321.027 139.478Z" fill="#AD263D"/>
<path d="M304.658 141.424C304.658 141.424 306.076 149.402 311.819 152.382C313.516 150.555 315.19 148.531 316.787 146.451L304.658 141.424Z" fill="#311E69"/>
<path d="M319.713 121.514C315.81 123.538 309.529 133.34 303.27 139.999C304.404 142.527 308.613 147.92 314.694 150.612C320.788 143.549 325.133 134.405 327.542 130.387C331.656 123.527 323.498 119.551 319.713 121.514Z" fill="white"/>
<path d="M324.438 121.452C324.338 122.192 324.145 123.289 323.773 124.85C322.935 128.387 319.822 128.586 317.49 131.869C315.157 135.151 314.361 138.26 313.642 140.581C312.924 142.904 309.414 142.065 307.784 145.399C307.728 145.514 307.686 145.635 307.652 145.759C309.534 147.586 311.915 149.379 314.694 150.61C320.788 143.547 325.133 134.402 327.542 130.385C330.256 125.859 327.627 122.59 324.438 121.452Z" fill="#EAE8FF"/>
<path d="M266.184 142.691C266.184 142.691 264.596 140.014 263.497 138.513C262.397 137.011 261.062 134.644 260.93 136.379C260.798 138.114 262.616 139.171 261.093 138.966C259.571 138.762 258.084 135.031 257.502 136.647C256.92 138.264 259.668 143.103 261.25 144.453C262.832 145.803 264.611 146.146 265.343 145.813C266.072 145.476 266.184 142.691 266.184 142.691Z" fill="#CFB992"/>
<path d="M266.802 156.762C266.802 156.762 264.872 153.908 265.536 152.382C266.201 150.856 267.767 150.497 267.827 152.382C267.886 154.266 267.656 153.78 267.886 154.266C268.116 154.751 269.868 156.921 269.937 157.968C270.004 159.014 267.223 158.631 266.802 156.762Z" fill="#AD263D"/>
<path d="M79.6349 121.245L97.9874 139.45C97.9874 139.45 122.037 149.526 117.719 153.181C113.399 156.833 88.3214 154.24 84.3819 152.397C74.021 147.55 79.6349 121.245 79.6349 121.245Z" fill="#AD263D"/>
<path d="M79.6349 121.245L94.2837 135.777C92.9876 141.635 90.4335 148.923 85.4443 152.774C85.0066 152.647 84.6432 152.52 84.3819 152.397C74.021 147.55 79.6349 121.245 79.6349 121.245Z" fill="#93B5BA"/>
<path d="M3.80493 249.013C5.8958 248.57 7.48944 247.397 8.70487 246.346L12.9822 250.443C12.9822 250.443 11.2823 251.627 10.8998 253.46C10.7341 254.259 11.2929 255.511 12.0473 257.252C13.063 260.197 14.2614 263.888 13.6898 264.652C12.7357 265.926 0.972486 254.589 0.0715441 251.608C-0.398051 250.051 1.5122 249.5 3.80493 249.013Z" fill="#E0E0E0"/>
<path d="M66.0763 267.426C67.2683 265.657 67.5955 263.71 67.7337 262.11L74.2995 257.517C74.2995 257.517 73.2711 264.114 74.2761 265.697C74.7138 266.385 75.9888 266.896 77.7482 267.625C80.5317 269.036 83.9676 270.854 84.0909 271.801C84.2949 273.377 67.9334 273.396 65.2072 271.879C63.7835 271.087 64.7695 269.366 66.0763 267.426Z" fill="#E0E0E0"/>
<path d="M42.0461 163.456L41.2493 170.091C38.1576 181.273 34.8152 193.063 33.2577 206.347C30.3955 230.761 -2.79273 243.323 7.1155 250.509C12.9355 254.729 13.8428 255.343 18.6365 254.632C43.7906 250.897 59.5061 190.881 60.5197 187.809C60.8214 186.896 61.7202 187.602 61.8286 188.557C61.8286 188.557 66.4162 210.302 66.2228 217.656C65.9168 229.255 57.7212 259.047 62.0432 263.877C63.7877 265.828 71.2609 266.854 73.9956 264.184C83.2387 255.157 84.9174 221.637 84.9386 214.87C84.996 196.432 82.8775 168.464 82.8775 168.464C82.8775 168.464 54.995 171.672 42.0461 163.456Z" fill="#D95F76"/>
<path d="M84.3841 152.397C81.0098 150.819 79.3376 146.963 78.6045 142.486L81.5814 134.436C81.5814 134.436 84.3841 143.855 86.7023 151.67C86.3007 152.06 85.8864 152.433 85.4465 152.772C85.0088 152.647 84.6455 152.52 84.3841 152.397Z" fill="#311E69"/>
<path d="M33.2576 206.345C34.8151 193.061 38.1575 181.271 41.2492 170.089L42.046 163.454C43.6673 164.481 45.5201 165.331 47.526 166.03C47.6386 167.784 47.4198 169.687 46.6761 171.702C43.0999 181.379 37.7835 192.557 37.0908 201.889C36.3981 211.222 29.4647 231.384 23.9167 235.994C20.3256 238.979 23.566 246.649 26.2965 251.685C23.8529 253.206 21.2967 254.233 18.6364 254.627C13.8448 255.339 12.9354 254.725 7.11535 250.504C-2.79289 243.322 30.3932 230.759 33.2576 206.345Z" fill="#AA3766"/>
<path d="M82.8754 168.462C82.9264 160.168 81.7769 137.675 81.7769 137.675C81.7769 137.675 81.4412 130.927 80.7655 125.319C80.2619 121.129 78.1646 117.771 74.2974 116.055C63.0866 111.078 45.1039 111.517 41.0156 122.853C39.4326 127.245 42.1843 135.774 43.3275 142.416C43.3275 142.416 44.9403 153.1 40.8775 168.46C46.4808 171.973 79.3843 177.233 82.8754 168.462Z" fill="#B8D2D8"/>
<path d="M43.3294 142.414C42.1863 135.77 39.4346 127.241 41.0176 122.851C43.2104 116.767 49.4087 113.824 56.4101 113.169C55.5793 118.101 53.6924 130.217 54.4212 134.489C55.3455 139.904 62.0304 155.657 62.0304 155.657L55.847 172.337C49.0007 171.36 42.9937 169.786 40.8773 168.458C44.9422 153.098 43.3294 142.414 43.3294 142.414Z" fill="#93B5BA"/>
<path d="M128.43 142.45C128.43 142.45 154.183 138.796 170.371 154.632C186.56 170.467 200 186.761 200 186.761C200 186.761 121.652 192.852 110.503 173.208C99.3556 153.564 120.088 141.232 128.43 142.45Z" fill="#6D6D2F"/>
<path d="M118.843 147.55C118.843 147.55 139.524 150.321 146.9 151.084C154.275 151.844 166.187 152.607 162.827 154.128C159.468 155.651 138.698 151.749 135.948 152.863C133.198 153.975 145.569 160.219 147.86 160.829C150.151 161.439 170.005 156.261 168.325 159.458C166.644 162.655 149.082 162.655 149.082 163.418C149.082 164.179 166.034 170.727 170.311 171.185C174.586 171.642 190.166 175.752 183.904 176.363C177.642 176.971 173.52 176.668 176.42 177.886C179.323 179.104 187.11 182.301 183.598 183.064C180.086 183.824 155.191 168.751 156.566 171.339C157.94 173.928 161.912 185.252 158.856 183.093C155.803 180.935 154.732 171.189 150.61 168.753C146.485 166.316 139.919 159.465 138.239 160.53C136.558 161.596 142.667 177.28 139.154 174.996C135.642 172.712 136.101 157.484 132.436 154.897C128.77 152.302 113.497 149.802 118.843 147.55Z" fill="#4F4E21"/>
<path d="M107.267 149.867C107.267 149.867 95.5182 158.852 98.4633 173.665C101.406 188.476 105.643 202.364 105.643 202.364C105.643 202.364 138.519 172.483 131.516 157.867C124.512 143.253 109.704 145.742 107.267 149.867Z" fill="#4F4E21"/>
<path d="M113.771 148.41C113.771 148.41 107.587 158.509 105.252 161.996C102.917 165.483 98.8796 170.879 101.009 170.235C103.138 169.591 108.711 158.884 110.377 158.289C112.043 157.695 110.955 166.053 110.443 167.324C109.931 168.595 99.5277 174.33 101.98 175.239C104.432 176.148 111.023 168.761 111.459 169.146C111.892 169.532 109.26 179.97 107.915 182C106.57 184.029 103.063 192.658 105.762 190.334C108.459 188.008 109.833 186.12 109.438 187.955C109.043 189.792 107.94 194.684 109.693 193.591C111.446 192.497 112.203 174.409 113.161 176.294C114.119 178.18 119.079 185.572 118.996 183.197C118.913 180.82 113.762 175.447 113.922 172.481C114.081 169.515 112.644 163.291 113.881 163.123C115.118 162.956 121.76 173.449 121.777 170.818C121.794 168.187 112.948 160.685 112.851 157.835C112.751 154.986 117.06 147.299 113.771 148.41Z" fill="#383716"/>
<path d="M121.867 133.732C121.867 133.732 132.295 119.531 123.275 107.667C119.308 102.447 118.24 94.4494 112.188 95.0299C106.136 95.6104 108.285 101.352 107.539 104.03C106.791 106.708 102.634 112.542 102.479 119.724C102.324 126.906 112.033 144.637 116.661 140.455C121.287 136.275 121.867 133.732 121.867 133.732Z" fill="white"/>
<path d="M145.537 131.044C145.537 131.044 147.696 115.907 146.577 112.674C145.457 109.439 143.323 107.843 143.838 104.992C144.354 102.14 136.335 100.886 134.769 102.865C133.203 104.843 130.746 106.614 126.707 109.108C122.668 111.602 114.413 125.309 113.399 132.266C112.385 139.224 115.194 143.283 121.983 141.766C128.774 140.253 143.58 136.686 145.537 131.044Z" fill="white"/>
<path d="M90.2444 133.451C90.2444 133.451 86.834 118.563 87.4502 115.345C88.0643 112.127 89.7111 110.504 88.9759 107.701C88.2407 104.9 94.9234 103.477 96.4575 105.394C97.9938 107.311 100.265 109.002 103.956 111.369C107.647 113.737 116.087 127.074 117.672 133.917C119.257 140.76 118.541 153.639 112.615 152.302C106.691 150.963 92.4968 138.974 90.2444 133.451Z" fill="white"/>
<path d="M124.397 132.141C124.397 132.141 121.129 112.87 115.885 112.366C107.116 111.521 105.832 129.963 108.575 137.893C111.317 145.821 123.862 139.429 124.397 132.141Z" fill="#FFFAF5"/>
<path d="M119.2 135.499C119.2 135.499 124.697 126.364 122.763 124.332C120.83 122.302 120.728 125.652 120.014 126.768C119.302 127.885 118.354 119.766 117.162 122.205C115.97 124.641 114.712 129.51 114.712 129.51C114.712 129.51 112.887 121.997 111.867 123.521C110.849 125.044 111.164 129.306 111.164 129.306C111.164 129.306 107.59 121.794 106.062 124.637C104.534 127.48 105.552 135.601 108.199 138.95C110.847 142.3 114.512 146.158 115.836 143.823C117.162 141.488 119.2 135.499 119.2 135.499Z" fill="#EAD475"/>
<path d="M110.035 157.63C110.035 157.63 104.13 158.441 98.6311 150.727C93.1319 143.012 87.8389 130.677 86.6171 123.978C85.3953 117.279 104.332 124.334 108.405 129.815C112.479 135.298 119.402 155.193 110.035 157.63Z" fill="#FFEBD9"/>
<path d="M137.323 130.493C137.323 130.493 138.392 113.014 134.573 115.146C130.755 117.277 122.621 125.616 123.176 131.65C123.73 137.683 135.336 135.484 137.323 130.493Z" fill="#FFFAF5"/>
<path d="M114.345 152.863C114.345 152.863 112.275 137.327 106.37 133.673C100.465 130.018 85.8033 129.815 78.2686 126.771C70.7338 123.726 81.73 116.01 88.2469 116.01C94.7639 116.01 103.518 118.853 107.592 122.913C111.665 126.974 112.683 129.512 113.905 135.196C115.126 140.88 116.374 149.268 114.345 152.863Z" fill="white"/>
<path d="M111.206 150.168C111.206 150.168 115.634 128.393 123.271 126.87C130.908 125.347 133.808 124.15 136.405 120.714C139.001 117.277 144.652 117.277 146.791 120.017C148.929 122.758 155.344 121.387 149.845 131.133C144.346 140.878 138.617 153.488 127.774 155.467C116.931 157.446 110.596 162.198 111.206 150.168Z" fill="#FFEBD9"/>
<path d="M115.617 158.071C115.83 155.41 116.265 152.422 117.162 150.931C118.994 147.887 120.368 143.014 123.175 139.45C125.98 135.889 126.949 144.539 126.949 144.539C126.949 144.539 129.686 138.749 131.592 135.247C133.498 131.745 134.42 139.662 134.42 142.086C134.42 144.509 138.085 132.963 139.766 130.984C141.447 129.006 141.598 133.268 141.294 139.452C141.128 142.789 139.142 147.018 137.346 150.208C134.628 152.855 131.505 154.793 127.776 155.473C122.612 156.412 118.473 157.982 115.617 158.071Z" fill="#F7E0CD"/>
<path d="M56.2147 102.428C56.2147 102.428 55.2054 97.6167 58.8432 97.2438C61.1402 97.0065 61.4886 97.2141 61.4886 97.2141C61.4886 97.2141 62.6573 95.746 64.5357 95.8604C66.4141 95.9748 66.5862 97.5023 66.5862 97.5023C66.5862 97.5023 68.6664 97.2671 69.2444 99.4874C69.8224 101.708 68.0609 104.015 65.1413 104.172C64.5591 104.203 63.9875 104.239 63.4308 104.267C63.2863 106.949 61.886 110.75 59.5805 110.472C56.1935 110.068 56.2147 102.428 56.2147 102.428Z" fill="#311E69"/>
<path d="M59.4955 105.597L56.782 115.64C56.7225 116.877 61.7946 119.288 63.8153 117.796C64.406 117.36 64.287 108.292 64.287 108.292L59.4955 105.597Z" fill="#CFB992"/>
<path d="M64.2893 108.593C64.2957 109.385 64.3084 111.606 64.2532 113.669C63.3459 113.462 62.4364 113.023 61.6481 112.294C59.8037 110.587 59.7676 108.409 59.7676 108.409C59.7676 108.409 62.566 108.421 64.2893 108.593Z" fill="#311E69"/>
<path d="M61.019 103.157L59.6166 108.123C59.2851 109.794 60.3433 111.43 62.0113 111.805C63.3436 112.106 64.1978 112.072 65.8743 111.796C67.2703 111.568 67.9354 110.195 67.8589 108.36C67.7591 105.979 66.9877 103.816 66.5096 102.68C65.4196 100.093 62.1707 99.9873 61.019 103.157Z" fill="#CFB992"/>
<path d="M64.3572 107.08C64.3572 107.08 66.9793 106.455 67.1641 107.046C67.1641 107.046 67.2513 107.394 66.5267 107.576C65.7766 107.767 65.0605 107.602 64.3572 107.08Z" fill="white"/>
<path d="M66.2334 109.958C64.6483 109.71 63.5561 112.131 60.6684 110C60.1287 109.602 59.8121 108.606 59.6485 108.013L59.6187 108.121C59.2872 109.792 60.3475 111.428 62.0134 111.803C63.3457 112.104 64.1999 112.07 65.8764 111.794C66.7285 111.655 67.3065 111.089 67.6103 110.252C67.3299 110.311 66.7158 110.034 66.2334 109.958Z" fill="#AD263D"/>
<path d="M61.0424 101.767C61.0424 101.767 62.0008 104.572 61.8563 105.278C61.7118 105.981 60.66 105.712 60.3094 104.667C59.9609 103.621 60.0799 101.695 61.0424 101.767Z" fill="#311E69"/>
<path d="M60.8513 105.405C60.6771 105.138 60.5432 104.845 60.4285 104.547C60.2096 103.979 59.7549 103.187 59.0686 103.924C58.072 104.996 59.4 107.953 60.8959 107.646C62.0072 107.419 61.2933 106.078 60.8513 105.405Z" fill="#CFB992"/>
<path d="M69.9265 194.568C70.5915 200.949 69.8372 209.959 71.5329 214.463C73.2264 218.967 73.4155 245.058 72.6633 251.064C72.3148 253.844 74.9199 256.382 77.8182 258.305C76.7154 260.737 75.449 262.763 73.9956 264.182C71.2609 266.852 63.7899 265.826 62.0432 263.875C57.7213 259.045 65.9169 229.251 66.2228 217.654C66.4162 210.3 61.8286 188.555 61.8286 188.555C61.8031 188.324 61.7287 188.108 61.6289 187.926C64.0024 188.271 69.4101 189.602 69.9265 194.568Z" fill="#AA3766"/>
<path d="M82.835 164.462C77.2934 164.736 57.4259 163.454 46.6741 138.955L82.6204 157.047C82.7139 159.689 82.7925 162.248 82.835 164.462Z" fill="#311E69"/>
<path d="M44.4854 118.934C50.9514 115.76 63.3138 138.741 71.1801 143.145C82.9008 149.709 123.76 147.738 123.645 154.882C123.53 162.026 77.9287 162.632 67.6103 158.562C49.2218 151.31 35.8755 123.158 44.4854 118.934Z" fill="#CFB992"/>
<path d="M42.0674 122.186C43.9118 127.593 47.2691 136.061 51.2872 139.857C57.428 145.664 68.6388 152.374 73.3772 153.958C78.1157 155.545 92.4436 156.033 98.4528 156.263C104.462 156.494 114.168 155.918 117.868 155.456C120.02 155.187 122.289 154.566 123.628 154.651C123.637 154.728 123.647 154.804 123.645 154.882C123.53 162.026 77.9287 162.632 67.6104 158.562C51.9119 152.372 39.8937 130.951 42.0674 122.186Z" fill="#AD263D"/>
<path d="M44.4853 118.934C48.7096 116.86 55.4517 125.953 61.8136 133.735C60.0648 136.773 55.9596 143.105 50.9959 145.334C42.6048 134.652 38.8629 121.692 44.4853 118.934Z" fill="#B8D2D8"/>
<path d="M119.523 153.88C121.61 151.647 124.351 150.268 127.274 149.929C128.556 149.781 129.86 149.516 130.385 149.045C131.866 147.715 131.977 150.37 129.714 151.658C128.634 152.272 127.918 153.251 129.083 153.041C130.247 152.831 135.859 148.861 134.83 151.38C133.009 155.838 128.413 158.431 123.04 157.488C120.743 157.083 118.101 155.401 119.523 153.88Z" fill="#CFB992"/>
</svg>
