<svg width="44" height="44" viewBox="0 0 44 44" fill="none" xmlns="http://www.w3.org/2000/svg">
<path d="M31.1668 27.7408C31.1668 28.2074 30.9912 28.6549 30.6787 28.9848C30.3661 29.3147 29.9422 29.5001 29.5002 29.5001H14.5002C14.0581 29.5001 13.6342 29.3147 13.3217 28.9848C13.0091 28.6549 12.8335 28.2074 12.8335 27.7408V18.0649C12.8335 17.5983 13.0091 17.1508 13.3217 16.8209C13.6342 16.491 14.0581 16.3056 14.5002 16.3056H17.8335L19.5002 13.6667H24.5002L26.1668 16.3056H29.5002C29.9422 16.3056 30.3661 16.491 30.6787 16.8209C30.9912 17.1508 31.1668 17.5983 31.1668 18.0649V27.7408Z" stroke="white" stroke-width="1.6" stroke-linecap="round" stroke-linejoin="round"/>
<path d="M17 18.4155V21.4155H19.7273" stroke="white" stroke-width="1.6" stroke-linecap="round" stroke-linejoin="round"/>
<path d="M27.0002 26.4155V23.4155H24.2729" stroke="white" stroke-width="1.6" stroke-linecap="round" stroke-linejoin="round"/>
<path d="M25.8591 20.9156C25.6286 20.199 25.2368 19.5583 24.7202 19.0533C24.2037 18.5483 23.5793 18.1954 22.9053 18.0277C22.2313 17.8599 21.5297 17.8827 20.8658 18.094C20.202 18.3052 19.5976 18.6979 19.1091 19.2356L17 21.4156M27 23.4156L24.8909 25.5956C24.4024 26.1332 23.798 26.526 23.1342 26.7372C22.4703 26.9484 21.7687 26.9712 21.0947 26.8034C20.4207 26.6357 19.7963 26.2828 19.2798 25.7779C18.7632 25.2729 18.3714 24.6322 18.1409 23.9156" stroke="white" stroke-width="1.6" stroke-linecap="round" stroke-linejoin="round"/>
</svg>
